<svg class="border shadow-md" viewBox="0 0 1351.68 760.32" style="width: 1351.68px; height: 760.32px;" xmlns="http://www.w3.org/2000/svg" preserveAspectRatio="none"><rect class="bg" id="bg" x="0" y="0" width="1351.68" height="760.32" fill="#080710"/><g transform="&#10;        translate(-1196.2368000000001&#10;        -523.3536)&#10;        scale(2.77)&#10;                        "><path d="M1052,901.5Q936,1127,670.5,1136Q405,1145,331,910.5Q257,676,349.5,473Q442,270,668.5,283Q895,296,1031.5,486Q1168,676,1052,901.5Z" fill="#243174" stroke="none" stroke-width="10"/></g><g transform="&#10;        translate(-959.6928&#10;        -419.8656)&#10;        scale(2.42)&#10;                        "><path d="M1052,901.5Q936,1127,670.5,1136Q405,1145,331,910.5Q257,676,349.5,473Q442,270,668.5,283Q895,296,1031.5,486Q1168,676,1052,901.5Z" fill="#293684" stroke="none" stroke-width="10"/></g><g transform="&#10;        translate(-729.9072000000001&#10;        -319.3344)&#10;        scale(2.08)&#10;                        "><path d="M1052,901.5Q936,1127,670.5,1136Q405,1145,331,910.5Q257,676,349.5,473Q442,270,668.5,283Q895,296,1031.5,486Q1168,676,1052,901.5Z" fill="#2e3b94" stroke="none" stroke-width="10"/></g><g transform="&#10;        translate(-493.3632&#10;        -215.8464)&#10;        scale(1.73)&#10;                        "><path d="M1052,901.5Q936,1127,670.5,1136Q405,1145,331,910.5Q257,676,349.5,473Q442,270,668.5,283Q895,296,1031.5,486Q1168,676,1052,901.5Z" fill="#3340a4" stroke="none" stroke-width="10"/></g><g transform="&#10;        translate(-263.57759999999996&#10;        -115.31519999999998)&#10;        scale(1.39)&#10;                        "><path d="M1052,901.5Q936,1127,670.5,1136Q405,1145,331,910.5Q257,676,349.5,473Q442,270,668.5,283Q895,296,1031.5,486Q1168,676,1052,901.5Z" fill="#3845b4" stroke="none" stroke-width="10"/></g><g transform="&#10;        translate(-27.033600000000025&#10;        -11.82720000000001)&#10;        scale(1.04)&#10;                        "><path d="M1052,901.5Q936,1127,670.5,1136Q405,1145,331,910.5Q257,676,349.5,473Q442,270,668.5,283Q895,296,1031.5,486Q1168,676,1052,901.5Z" fill="#3d4ac4" stroke="none" stroke-width="10"/></g><g transform="&#10;        translate(209.51040000000003&#10;        91.66080000000002)&#10;        scale(0.69)&#10;                        "><path d="M1052,901.5Q936,1127,670.5,1136Q405,1145,331,910.5Q257,676,349.5,473Q442,270,668.5,283Q895,296,1031.5,486Q1168,676,1052,901.5Z" fill="#424fd4" stroke="none" stroke-width="10"/></g><g transform="&#10;        translate(439.29600000000005&#10;        192.192)&#10;        scale(0.35)&#10;                        "><path d="M1052,901.5Q936,1127,670.5,1136Q405,1145,331,910.5Q257,676,349.5,473Q442,270,668.5,283Q895,296,1031.5,486Q1168,676,1052,901.5Z" fill="#4754e4" stroke="none" stroke-width="10"/></g></svg>