<svg class="border shadow-md" viewBox="0 0 1351.68 760.32" style="width: 1351.68px; height: 760.32px;" xmlns="http://www.w3.org/2000/svg" preserveAspectRatio="none"><rect class="bg" id="bg" x="0" y="0" width="1351.68" height="760.32" fill="#171A21"/><g transform="&#10;        translate(-844.8000000000001&#10;        -369.6)&#10;        scale(2.25)&#10;                        "><path d="M1024.5,926Q964,1176,651.5,1217.5Q339,1259,218,967.5Q97,676,279.5,491Q462,306,720.5,228.5Q979,151,1032,413.5Q1085,676,1024.5,926Z" fill="#2c2d70" stroke="none" stroke-width="10"/></g><g transform="&#10;        translate(-689.3568&#10;        -301.59360000000004)&#10;        scale(2.02)&#10;                        "><path d="M1024.5,926Q964,1176,651.5,1217.5Q339,1259,218,967.5Q97,676,279.5,491Q462,306,720.5,228.5Q979,151,1032,413.5Q1085,676,1024.5,926Z" fill="#35307e" stroke="none" stroke-width="10"/></g><g transform="&#10;        translate(-540.672&#10;        -236.544)&#10;        scale(1.80)&#10;                        "><path d="M1024.5,926Q964,1176,651.5,1217.5Q339,1259,218,967.5Q97,676,279.5,491Q462,306,720.5,228.5Q979,151,1032,413.5Q1085,676,1024.5,926Z" fill="#3e338c" stroke="none" stroke-width="10"/></g><g transform="&#10;        translate(-385.22880000000004&#10;        -168.53760000000003)&#10;        scale(1.57)&#10;                        "><path d="M1024.5,926Q964,1176,651.5,1217.5Q339,1259,218,967.5Q97,676,279.5,491Q462,306,720.5,228.5Q979,151,1032,413.5Q1085,676,1024.5,926Z" fill="#47369a" stroke="none" stroke-width="10"/></g><g transform="&#10;        translate(-236.54400000000007&#10;        -103.48800000000003)&#10;        scale(1.35)&#10;                        "><path d="M1024.5,926Q964,1176,651.5,1217.5Q339,1259,218,967.5Q97,676,279.5,491Q462,306,720.5,228.5Q979,151,1032,413.5Q1085,676,1024.5,926Z" fill="#5039a8" stroke="none" stroke-width="10"/></g><g transform="&#10;        translate(-87.85919999999993&#10;        -38.438399999999966)&#10;        scale(1.13)&#10;                        "><path d="M1024.5,926Q964,1176,651.5,1217.5Q339,1259,218,967.5Q97,676,279.5,491Q462,306,720.5,228.5Q979,151,1032,413.5Q1085,676,1024.5,926Z" fill="#593cb6" stroke="none" stroke-width="10"/></g><g transform="&#10;        translate(67.58399999999999&#10;        29.567999999999994)&#10;        scale(0.90)&#10;                        "><path d="M1024.5,926Q964,1176,651.5,1217.5Q339,1259,218,967.5Q97,676,279.5,491Q462,306,720.5,228.5Q979,151,1032,413.5Q1085,676,1024.5,926Z" fill="#623fc4" stroke="none" stroke-width="10"/></g><g transform="&#10;        translate(216.26879999999997&#10;        94.61759999999998)&#10;        scale(0.68)&#10;                        "><path d="M1024.5,926Q964,1176,651.5,1217.5Q339,1259,218,967.5Q97,676,279.5,491Q462,306,720.5,228.5Q979,151,1032,413.5Q1085,676,1024.5,926Z" fill="#6b42d2" stroke="none" stroke-width="10"/></g><g transform="&#10;        translate(371.71200000000005&#10;        162.62400000000002)&#10;        scale(0.45)&#10;                        "><path d="M1024.5,926Q964,1176,651.5,1217.5Q339,1259,218,967.5Q97,676,279.5,491Q462,306,720.5,228.5Q979,151,1032,413.5Q1085,676,1024.5,926Z" fill="#7445e0" stroke="none" stroke-width="10"/></g><g transform="&#10;        translate(520.3968&#10;        227.67360000000002)&#10;        scale(0.23)&#10;                        "><path d="M1024.5,926Q964,1176,651.5,1217.5Q339,1259,218,967.5Q97,676,279.5,491Q462,306,720.5,228.5Q979,151,1032,413.5Q1085,676,1024.5,926Z" fill="#7d48ee" stroke="none" stroke-width="10"/></g></svg>